<?xml version="1.0" standalone="no"?>
<!DOCTYPE svg PUBLIC "-//W3C//DTD SVG 20010904//EN"
 "http://www.w3.org/TR/2001/REC-SVG-20010904/DTD/svg10.dtd">
<svg version="1.0" xmlns="http://www.w3.org/2000/svg"
 width="479.000000pt" height="479.000000pt" viewBox="0 0 479.000000 479.000000"
 preserveAspectRatio="xMidYMid meet">
<metadata>
Created by potrace 1.14, written by Peter Selinger 2001-2017
</metadata>
<g transform="translate(0.000000,479.000000) scale(0.100000,-0.100000)"
fill="#000000" stroke="none">
<path d="M2338 4731 c-29 -32 -87 -95 -128 -141 -41 -46 -98 -109 -126 -139
-96 -106 -124 -138 -124 -145 0 -4 18 -38 40 -75 83 -140 140 -317 162 -500 3
-32 -8 -24 -44 30 -60 90 -149 174 -263 250 l-100 67 -24 -22 c-12 -11 -69
-73 -125 -136 -55 -63 -110 -122 -121 -131 -19 -17 -18 -18 37 -42 203 -90
379 -293 475 -546 136 -363 110 -783 -65 -1021 -121 -166 -327 -238 -534 -189
-73 17 -222 85 -251 113 -7 7 -23 20 -37 29 -98 68 -238 240 -312 386 -93 183
-131 343 -132 556 -1 184 8 264 50 430 70 274 212 547 422 809 31 38 49 66 41
61 -295 -178 -554 -429 -757 -734 -133 -200 -277 -538 -318 -744 -2 -10 -5
-26 -8 -35 -3 -9 -8 -30 -11 -47 -2 -16 -7 -39 -9 -51 -2 -12 -7 -45 -11 -75
-4 -30 -10 -81 -15 -114 -8 -65 -7 -475 2 -491 3 -5 9 -38 12 -73 4 -36 9 -67
10 -70 2 -3 7 -24 10 -46 35 -218 162 -544 304 -775 133 -219 363 -476 548
-614 21 -17 41 -33 44 -36 7 -9 114 -81 191 -127 241 -148 559 -268 814 -307
22 -4 72 -12 110 -17 90 -14 429 -19 520 -8 136 16 161 20 235 36 41 8 82 16
91 18 52 10 210 60 313 100 80 30 304 141 327 161 8 8 19 14 23 14 10 0 151
96 226 154 428 333 731 807 850 1331 18 77 20 87 26 125 3 19 7 46 9 60 21
121 28 476 12 590 -4 30 -10 75 -13 100 -32 262 -162 621 -317 879 -185 307
-490 615 -772 781 l-40 23 25 -29 c14 -16 27 -31 30 -34 46 -46 196 -275 257
-390 71 -136 147 -327 168 -425 2 -11 11 -51 19 -90 39 -174 42 -432 7 -593
-103 -478 -498 -867 -860 -846 -226 12 -397 151 -479 389 -48 141 -69 354 -49
505 4 30 10 70 12 88 29 210 154 467 299 614 86 88 235 188 281 188 11 0 13 5
8 14 -9 16 -144 166 -223 248 l-55 57 -99 -67 c-114 -76 -213 -171 -268 -256
-44 -68 -45 -68 -34 24 18 150 103 381 182 495 20 28 18 35 -28 85 -22 25 -73
81 -112 124 -39 43 -76 84 -81 90 -6 6 -52 57 -102 113 l-92 101 -53 -57z"/>
</g>
</svg>
